<mxfile host="Electron" agent="Mozilla/5.0 (Windows NT 10.0; Win64; x64) AppleWebKit/537.36 (KHTML, like Gecko) draw.io/24.7.17 Chrome/128.0.6613.36 Electron/32.0.1 Safari/537.36" version="24.7.17">
  <diagram name="Page-1" id="5QxdCBPe__WiAMbGUYmo">
    <mxGraphModel dx="712" dy="1900" grid="1" gridSize="10" guides="1" tooltips="1" connect="1" arrows="1" fold="1" page="1" pageScale="1" pageWidth="827" pageHeight="1169" math="0" shadow="0">
      <root>
        <mxCell id="0" />
        <mxCell id="1" parent="0" />
        <mxCell id="v0kK-gOC_mlYQD1yinCu-15" value="" style="rounded=1;whiteSpace=wrap;html=1;fillColor=none;strokeColor=#7EA6E0;" parent="1" vertex="1">
          <mxGeometry x="519.5" y="-260" width="160" height="400" as="geometry" />
        </mxCell>
        <mxCell id="v0kK-gOC_mlYQD1yinCu-16" value="volume group" style="rounded=1;whiteSpace=wrap;html=1;fontSize=12;arcSize=10;strokeColor=none;fillColor=#E6E6E6;align=center;verticalAlign=top;fontColor=#333333;fontFamily=Helvetica;glass=0;shadow=0;" parent="1" vertex="1">
          <mxGeometry x="528.5" y="-131.5" width="142" height="261.5" as="geometry" />
        </mxCell>
        <mxCell id="tLbBUSgRtf6cmhdxnKj_-11" value="" style="rounded=1;whiteSpace=wrap;html=1;fillColor=none;strokeColor=#7EA6E0;dashed=1;" parent="1" vertex="1">
          <mxGeometry x="540" y="10" width="120" height="110" as="geometry" />
        </mxCell>
        <mxCell id="v0kK-gOC_mlYQD1yinCu-1" value="" style="group;fontFamily=Helvetica;" parent="1" vertex="1" connectable="0">
          <mxGeometry x="130" y="-148" width="310" height="228" as="geometry" />
        </mxCell>
        <mxCell id="v0kK-gOC_mlYQD1yinCu-2" value="" style="rounded=1;whiteSpace=wrap;html=1;fontSize=16;dashed=1;strokeColor=#7EA6E0;arcSize=2;fontFamily=Helvetica;" parent="v0kK-gOC_mlYQD1yinCu-1" vertex="1">
          <mxGeometry width="310" height="228" as="geometry" />
        </mxCell>
        <mxCell id="v0kK-gOC_mlYQD1yinCu-3" value="spoke-01&lt;br&gt;10.13.1.0/24" style="aspect=fixed;html=1;points=[];align=left;image;fontSize=12;image=img/lib/azure2/networking/Virtual_Networks.svg;fontColor=#333333;fontFamily=Helvetica;" parent="v0kK-gOC_mlYQD1yinCu-1" vertex="1">
          <mxGeometry x="7" y="5" width="23" height="13.73" as="geometry" />
        </mxCell>
        <mxCell id="v0kK-gOC_mlYQD1yinCu-4" value="services&lt;br&gt;10.13.1.64/26" style="rounded=1;whiteSpace=wrap;html=1;fontSize=12;arcSize=3;strokeColor=none;fillColor=#E6E6E6;align=left;verticalAlign=top;fontColor=#333333;fontFamily=Helvetica;" parent="v0kK-gOC_mlYQD1yinCu-1" vertex="1">
          <mxGeometry x="160" y="88" width="142" height="133" as="geometry" />
        </mxCell>
        <mxCell id="v0kK-gOC_mlYQD1yinCu-5" value="" style="group;fontFamily=Helvetica;" parent="v0kK-gOC_mlYQD1yinCu-1" vertex="1" connectable="0">
          <mxGeometry x="7" y="88" width="142" height="133" as="geometry" />
        </mxCell>
        <mxCell id="v0kK-gOC_mlYQD1yinCu-6" value="default&lt;br&gt;10.13.1.0/26" style="rounded=1;whiteSpace=wrap;html=1;fontSize=12;arcSize=3;strokeColor=none;fillColor=#E6E6E6;fontColor=#333333;align=left;verticalAlign=top;fontFamily=Helvetica;" parent="v0kK-gOC_mlYQD1yinCu-5" vertex="1">
          <mxGeometry width="142" height="133" as="geometry" />
        </mxCell>
        <mxCell id="v0kK-gOC_mlYQD1yinCu-7" value="spoke-01-vm&lt;br&gt;10.13.1.4" style="image;sketch=0;aspect=fixed;html=1;points=[];align=center;fontSize=12;image=img/lib/mscae/VirtualMachineWindows.svg;fontFamily=Helvetica;" parent="v0kK-gOC_mlYQD1yinCu-5" vertex="1">
          <mxGeometry x="46" y="40" width="50" height="46" as="geometry" />
        </mxCell>
        <mxCell id="v0kK-gOC_mlYQD1yinCu-8" value="North Europe" style="shadow=0;dashed=0;html=1;strokeColor=none;fillColor=#4495D1;labelPosition=right;verticalLabelPosition=middle;verticalAlign=middle;align=left;outlineConnect=0;shape=mxgraph.veeam.globe;fontSize=12;fontColor=#808080;direction=south;rotation=0;fontFamily=Helvetica;" parent="v0kK-gOC_mlYQD1yinCu-1" vertex="1">
          <mxGeometry x="219.5" y="5.230000000000018" width="13" height="13.5" as="geometry" />
        </mxCell>
        <mxCell id="v0kK-gOC_mlYQD1yinCu-10" value="elastic-01-private-endp&lt;br&gt;10.13.1.68" style="image;aspect=fixed;html=1;points=[];align=center;fontSize=12;image=img/lib/azure2/other/Private_Endpoints.svg;" parent="v0kK-gOC_mlYQD1yinCu-1" vertex="1">
          <mxGeometry x="214.18" y="131.5" width="33.64" height="32" as="geometry" />
        </mxCell>
        <mxCell id="v0kK-gOC_mlYQD1yinCu-11" value="elastic-01&lt;br&gt;&lt;i&gt;LRS Storage&lt;/i&gt;" style="image;aspect=fixed;html=1;points=[];align=center;fontSize=12;image=img/lib/azure2/other/Elastic_SAN.svg;fontColor=#333333;" parent="1" vertex="1">
          <mxGeometry x="565.5" y="-240" width="68" height="68" as="geometry" />
        </mxCell>
        <mxCell id="v0kK-gOC_mlYQD1yinCu-13" value="group-01" style="image;aspect=fixed;html=1;points=[];align=center;fontSize=12;image=img/lib/azure2/other/Disk_Pool.svg;" parent="1" vertex="1">
          <mxGeometry x="565.5" y="-100" width="68" height="66" as="geometry" />
        </mxCell>
        <mxCell id="v0kK-gOC_mlYQD1yinCu-14" value="my-volume-01" style="image;aspect=fixed;html=1;points=[];align=center;fontSize=12;image=img/lib/azure2/compute/Disks.svg;" parent="1" vertex="1">
          <mxGeometry x="571" y="40" width="56.99999999999999" height="56.00000000000001" as="geometry" />
        </mxCell>
        <mxCell id="tLbBUSgRtf6cmhdxnKj_-1" value="" style="endArrow=none;dashed=1;html=1;rounded=0;fontSize=12;startSize=8;endSize=8;strokeColor=#808080;fontFamily=Helvetica;entryX=0.072;entryY=0.705;entryDx=0;entryDy=0;entryPerimeter=0;" parent="1" edge="1">
          <mxGeometry width="50" height="50" relative="1" as="geometry">
            <mxPoint x="380" y="5.999999999999943" as="sourcePoint" />
            <mxPoint x="530.0199999999999" y="6.0499999999999545" as="targetPoint" />
          </mxGeometry>
        </mxCell>
        <mxCell id="tLbBUSgRtf6cmhdxnKj_-2" value="privatelink.blob.core.windows.net" style="image;sketch=0;aspect=fixed;html=1;points=[];align=center;fontSize=12;image=img/lib/mscae/DNS_Private_Zones.svg;" parent="1" vertex="1">
          <mxGeometry x="260" y="-280" width="50" height="50" as="geometry" />
        </mxCell>
        <mxCell id="tLbBUSgRtf6cmhdxnKj_-4" value="" style="endArrow=none;dashed=1;html=1;rounded=0;fontSize=12;startSize=8;endSize=8;strokeColor=#D6B656;fontFamily=Helvetica;" parent="1" edge="1">
          <mxGeometry width="50" height="50" relative="1" as="geometry">
            <mxPoint x="284.68" y="-148.00000000000006" as="sourcePoint" />
            <mxPoint x="285" y="-190" as="targetPoint" />
          </mxGeometry>
        </mxCell>
        <mxCell id="tLbBUSgRtf6cmhdxnKj_-9" value="iSCSI" style="endArrow=classic;html=1;rounded=0;strokeColor=#FF0000;strokeWidth=3;endFill=1;exitX=0.725;exitY=0.586;exitDx=0;exitDy=0;exitPerimeter=0;dashed=1;dashPattern=1 1;" parent="1" edge="1">
          <mxGeometry x="0.2309" width="50" height="50" relative="1" as="geometry">
            <mxPoint x="239.95000000000005" y="-0.0019999999998994156" as="sourcePoint" />
            <mxPoint x="600" y="30" as="targetPoint" />
            <Array as="points">
              <mxPoint x="600" y="0.05999999999999872" />
            </Array>
            <mxPoint as="offset" />
          </mxGeometry>
        </mxCell>
      </root>
    </mxGraphModel>
  </diagram>
</mxfile>
